<?xml version="1.0" encoding="iso-8859-1"?>
<!-- Generator: Adobe Illustrator 19.0.0, SVG Export Plug-In . SVG Version: 6.00 Build 0)  -->
<svg version="1.1" id="Layer_1" xmlns="http://www.w3.org/2000/svg" xmlns:xlink="http://www.w3.org/1999/xlink" x="0px" y="0px"
	 viewBox="0 0 512 512" style="enable-background:new 0 0 512 512;" xml:space="preserve">
<g>
	<g>
		<g>
			<path d="M357.51,224.561v-34.225c0-2.737-2.224-4.952-4.961-4.952h-21.522H136.821h-21.522c-2.737,0-4.961,2.216-4.961,4.952
				v34.225c0,2.737,2.225,4.961,4.961,4.961h13.815c0.309-1.209,0.786-2.339,1.218-3.487c0.212-0.565,0.353-1.156,0.591-1.704
				c0.847-1.942,1.845-3.796,3.01-5.544c0.265-0.388,0.591-0.724,0.865-1.103c0.962-1.333,1.986-2.604,3.125-3.787
				c0.521-0.539,1.086-1.006,1.633-1.51c1.015-0.927,2.048-1.81,3.169-2.613c0.653-0.477,1.324-0.909,2.013-1.333
				c1.139-0.706,2.313-1.342,3.531-1.924c0.733-0.344,1.448-0.689,2.198-0.98c1.351-0.53,2.745-0.936,4.175-1.298
				c0.689-0.177,1.342-0.406,2.039-0.538c2.154-0.406,4.352-0.662,6.621-0.662c2.269,0,4.467,0.256,6.621,0.662
				c0.697,0.132,1.351,0.362,2.039,0.538c1.43,0.362,2.825,0.768,4.175,1.298c0.75,0.291,1.465,0.636,2.198,0.98
				c1.218,0.583,2.392,1.218,3.531,1.924c0.689,0.424,1.359,0.856,2.013,1.333c1.121,0.803,2.154,1.686,3.169,2.613
				c0.547,0.503,1.112,0.971,1.633,1.51c1.139,1.183,2.163,2.454,3.125,3.787c0.274,0.38,0.6,0.715,0.865,1.103
				c1.165,1.748,2.163,3.602,3.01,5.544c0.238,0.547,0.38,1.139,0.591,1.704c0.433,1.148,0.909,2.278,1.218,3.487h72.863
				c0.309-1.209,0.786-2.339,1.218-3.487c0.212-0.565,0.353-1.156,0.591-1.704c0.847-1.942,1.845-3.796,3.01-5.544
				c0.265-0.388,0.591-0.724,0.865-1.103c0.962-1.333,1.986-2.604,3.125-3.787c0.521-0.539,1.086-1.006,1.633-1.51
				c1.015-0.927,2.048-1.81,3.169-2.613c0.653-0.477,1.324-0.909,2.013-1.333c1.139-0.706,2.313-1.342,3.531-1.924
				c0.733-0.344,1.448-0.689,2.198-0.98c1.351-0.53,2.745-0.936,4.175-1.298c0.689-0.177,1.342-0.406,2.039-0.538
				c2.154-0.406,4.352-0.662,6.621-0.662c2.269,0,4.467,0.256,6.621,0.662c0.697,0.132,1.351,0.362,2.039,0.538
				c1.43,0.362,2.825,0.768,4.175,1.298c0.75,0.291,1.465,0.636,2.198,0.98c1.218,0.583,2.392,1.218,3.531,1.924
				c0.689,0.424,1.359,0.856,2.013,1.333c1.121,0.803,2.154,1.686,3.169,2.613c0.547,0.503,1.112,0.971,1.633,1.51
				c1.139,1.183,2.163,2.454,3.125,3.787c0.274,0.38,0.6,0.715,0.865,1.103c1.165,1.748,2.163,3.602,3.01,5.544
				c0.238,0.547,0.38,1.139,0.591,1.704c0.433,1.148,0.909,2.278,1.218,3.487h13.815C355.286,229.522,357.51,227.297,357.51,224.561
				z"/>
			<path d="M285.795,128.405c-2.154-3.019-5.667-4.82-9.375-4.82h-33.668v44.138h71.124L285.795,128.405z"/>
			<path d="M225.096,123.586h-33.66c-3.716,0-7.23,1.801-9.384,4.82l-28.081,39.318h71.124V123.586z"/>
			<path d="M163.303,220.69c-9.737,0-17.655,7.918-17.655,17.655c0,9.737,7.918,17.655,17.655,17.655s17.655-7.918,17.655-17.655
				C180.959,228.608,173.04,220.69,163.303,220.69z"/>
			<path d="M304.545,220.69c-9.737,0-17.655,7.918-17.655,17.655c0,9.737,7.918,17.655,17.655,17.655
				c9.737,0,17.655-7.918,17.655-17.655C322.2,228.608,314.282,220.69,304.545,220.69z"/>
			<polygon points="295.717,0 172.131,0 172.131,44.138 172.131,52.966 295.708,52.966 			"/>
			<path d="M419.303,52.966v262.735l35.31,60.531V26.483C454.614,11.882,442.732,0,428.131,0H313.372v35.31h88.276
				C411.385,35.31,419.303,43.229,419.303,52.966z"/>
			<path d="M235.894,476.69H66.202c-9.737,0-17.655-7.918-17.655-17.655V52.966c0-9.737,7.918-17.655,17.655-17.655h88.276V0H39.719
				c-14.61,0-26.483,11.882-26.483,26.483v459.034c0,14.601,11.873,26.483,26.483,26.483h198.435
				c-0.238-0.38-0.512-0.724-0.742-1.112C231.277,500.198,230.819,487.671,235.894,476.69z"/>
			<path d="M374.415,275.588c10.584,0,20.268,4.334,27.233,11.811V52.966h-88.276c0,9.737-7.918,17.655-17.655,17.655H172.131
				c-9.737,0-17.655-7.918-17.655-17.655H66.2v406.069h179.721l96.185-164.891C348.877,282.527,360.962,275.588,374.415,275.588z
				 M233.924,423.724H101.51c-4.882,0-8.828-3.946-8.828-8.828s3.946-8.828,8.828-8.828h132.414c4.882,0,8.828,3.946,8.828,8.828
				S238.806,423.724,233.924,423.724z M233.924,379.586H101.51c-4.882,0-8.828-3.946-8.828-8.828s3.946-8.828,8.828-8.828h132.414
				c4.882,0,8.828,3.946,8.828,8.828S238.806,379.586,233.924,379.586z M233.924,335.448H101.51c-4.882,0-8.828-3.946-8.828-8.828
				c0-4.882,3.946-8.828,8.828-8.828h132.414c4.882,0,8.828,3.946,8.828,8.828C242.752,331.502,238.806,335.448,233.924,335.448z
				 M304.545,273.655c-16.41,0-30.111-11.299-34.057-26.483H197.36c-3.946,15.183-17.646,26.483-34.057,26.483
				c-16.411,0-30.111-11.299-34.057-26.483h-13.948c-12.473,0-22.616-10.143-22.616-22.616V190.34
				c0-12.473,10.143-22.616,22.616-22.616h16.984l35.407-49.576c5.464-7.645,14.336-12.217,23.746-12.217h84.974
				c9.41,0,18.282,4.573,23.746,12.217l35.407,49.576h16.984c12.473,0,22.616,10.143,22.616,22.616v34.216
				c0,12.473-10.143,22.616-22.616,22.616h-13.948C334.656,262.356,320.955,273.655,304.545,273.655z"/>
			<path d="M496.042,482.295L391.488,303.042c-3.584-6.135-9.966-9.799-17.073-9.799s-13.48,3.663-17.064,9.799L252.789,482.295
				c-3.602,6.179-3.628,13.586-0.071,19.791c3.575,6.206,9.975,9.913,17.134,9.913h209.134c7.15,0,13.559-3.708,17.117-9.913
				C499.67,495.881,499.652,488.483,496.042,482.295z M381.433,474.13c-1.677,1.668-3.884,2.56-6.268,2.56
				c-2.383,0-4.59-0.892-6.268-2.56c-1.677-1.677-2.56-3.884-2.56-6.268c0-2.295,0.971-4.599,2.56-6.268
				c0.883-0.794,1.854-1.412,2.913-1.854c3.178-1.412,7.15-0.618,9.622,1.854c1.589,1.668,2.56,3.972,2.56,6.268
				C383.993,470.246,383.11,472.452,381.433,474.13z M383.993,432.552c0,4.882-3.955,8.828-8.828,8.828s-8.828-3.946-8.828-8.828
				v-70.621c0-4.882,3.955-8.828,8.828-8.828s8.828,3.946,8.828,8.828V432.552z"/>
		</g>
	</g>
</g>
<g>
</g>
<g>
</g>
<g>
</g>
<g>
</g>
<g>
</g>
<g>
</g>
<g>
</g>
<g>
</g>
<g>
</g>
<g>
</g>
<g>
</g>
<g>
</g>
<g>
</g>
<g>
</g>
<g>
</g>
</svg>
