<?xml version="1.0" encoding="iso-8859-1"?>
<!-- Generator: Adobe Illustrator 19.0.0, SVG Export Plug-In . SVG Version: 6.00 Build 0)  -->
<svg version="1.1" id="Layer_1" xmlns="http://www.w3.org/2000/svg" xmlns:xlink="http://www.w3.org/1999/xlink" x="0px" y="0px"
	 viewBox="0 0 512 512" style="enable-background:new 0 0 512 512;" xml:space="preserve">
<g>
	<g>
		<g>
			<path d="M283.981,209.773c0.653-0.468,1.324-0.909,2.013-1.333c1.139-0.706,2.313-1.342,3.531-1.924
				c0.733-0.344,1.448-0.689,2.198-0.98c1.351-0.53,2.745-0.936,4.175-1.298c0.689-0.177,1.342-0.406,2.039-0.539
				c2.154-0.406,4.352-0.662,6.621-0.662c2.269,0,4.467,0.256,6.621,0.662c0.697,0.132,1.351,0.362,2.039,0.539
				c1.43,0.362,2.825,0.768,4.175,1.298c0.75,0.291,1.465,0.636,2.198,0.98c1.218,0.583,2.392,1.218,3.531,1.924
				c0.689,0.424,1.359,0.865,2.013,1.333c1.121,0.803,2.154,1.686,3.169,2.613c0.547,0.503,1.112,0.971,1.633,1.51
				c1.139,1.183,2.163,2.454,3.125,3.787c0.274,0.38,0.6,0.715,0.865,1.103c1.165,1.748,2.163,3.602,3.01,5.544
				c0.238,0.547,0.38,1.139,0.591,1.704c0.433,1.148,0.909,2.278,1.218,3.487h13.815c2.737,0,4.961-2.225,4.961-4.961v-34.225
				c0-2.728-2.224-4.952-4.961-4.952h-21.522H136.834h-21.522c-2.737,0-4.961,2.224-4.961,4.952v34.225
				c0,2.737,2.225,4.961,4.961,4.961h13.815c0.309-1.209,0.786-2.339,1.218-3.487c0.212-0.565,0.353-1.156,0.591-1.704
				c0.847-1.942,1.845-3.796,3.01-5.544c0.265-0.388,0.591-0.724,0.865-1.103c0.962-1.333,1.986-2.604,3.125-3.787
				c0.521-0.538,1.086-1.006,1.633-1.51c1.015-0.927,2.048-1.81,3.169-2.613c0.653-0.468,1.324-0.909,2.013-1.333
				c1.139-0.706,2.313-1.342,3.531-1.924c0.733-0.344,1.448-0.689,2.198-0.98c1.351-0.53,2.745-0.936,4.175-1.298
				c0.689-0.177,1.342-0.406,2.039-0.539c2.154-0.406,4.352-0.662,6.621-0.662c2.269,0,4.467,0.256,6.621,0.662
				c0.697,0.132,1.351,0.362,2.039,0.539c1.43,0.362,2.825,0.768,4.175,1.298c0.75,0.291,1.465,0.636,2.198,0.98
				c1.218,0.583,2.392,1.218,3.531,1.924c0.689,0.424,1.359,0.865,2.013,1.333c1.121,0.803,2.154,1.686,3.169,2.613
				c0.547,0.503,1.112,0.971,1.633,1.51c1.139,1.183,2.163,2.454,3.125,3.787c0.274,0.38,0.6,0.715,0.865,1.103
				c1.165,1.748,2.163,3.602,3.01,5.544c0.238,0.547,0.38,1.139,0.591,1.704c0.433,1.148,0.909,2.278,1.218,3.487h72.863
				c0.309-1.209,0.786-2.339,1.218-3.487c0.212-0.565,0.353-1.156,0.591-1.704c0.847-1.942,1.845-3.796,3.01-5.544
				c0.265-0.388,0.591-0.724,0.865-1.103c0.962-1.333,1.986-2.604,3.125-3.787c0.521-0.538,1.086-1.006,1.633-1.51
				C281.827,211.46,282.86,210.577,283.981,209.773z"/>
			<path d="M285.809,128.405c-2.154-3.019-5.667-4.82-9.375-4.82h-33.668v44.138h71.124L285.809,128.405z"/>
			<path d="M225.11,123.586h-33.66c-3.716,0-7.23,1.801-9.384,4.82l-28.081,39.318h71.124V123.586z"/>
			<path d="M163.317,220.69c-9.737,0-17.655,7.918-17.655,17.655c0,9.737,7.918,17.655,17.655,17.655s17.655-7.918,17.655-17.655
				C180.972,228.608,173.054,220.69,163.317,220.69z"/>
			<path d="M304.558,220.69c-9.737,0-17.655,7.918-17.655,17.655c0,9.737,7.918,17.655,17.655,17.655
				c9.737,0,17.655-7.918,17.655-17.655C322.214,228.608,314.295,220.69,304.558,220.69z"/>
			<polygon points="295.731,0 172.145,0 172.145,44.138 172.145,52.966 295.722,52.966 			"/>
			<path d="M419.317,52.966v219.789c7.733-6.329,17.611-10.055,27.948-10.055c2.489,0,4.935,0.309,7.362,0.715V26.483
				C454.627,11.882,442.745,0,428.145,0H313.386v35.31h88.276C411.399,35.31,419.317,43.229,419.317,52.966z"/>
			<path d="M48.558,459.034V52.966c0-9.737,7.918-17.655,17.655-17.655h88.276V0H39.731C25.13,0,13.248,11.882,13.248,26.483
				v459.034C13.248,500.118,25.13,512,39.731,512h210.644l9.631-35.31H66.214C56.477,476.69,48.558,468.771,48.558,459.034z"/>
			<path d="M401.662,289.818V52.966h-88.276c0,9.737-7.918,17.655-17.655,17.655H172.145c-9.737,0-17.655-7.918-17.655-17.655
				H66.214v406.069h198.612l12.138-44.526L401.662,289.818z M233.938,423.724H101.524c-4.882,0-8.828-3.946-8.828-8.828
				s3.946-8.828,8.828-8.828h132.414c4.882,0,8.828,3.946,8.828,8.828S238.819,423.724,233.938,423.724z M233.938,379.586H101.524
				c-4.882,0-8.828-3.946-8.828-8.828s3.946-8.828,8.828-8.828h132.414c4.882,0,8.828,3.946,8.828,8.828
				S238.819,379.586,233.938,379.586z M233.938,335.448H101.524c-4.882,0-8.828-3.946-8.828-8.828c0-4.882,3.946-8.828,8.828-8.828
				h132.414c4.882,0,8.828,3.946,8.828,8.828C242.765,331.502,238.819,335.448,233.938,335.448z M197.374,247.172
				c-3.946,15.183-17.646,26.483-34.057,26.483c-16.411,0-30.111-11.299-34.057-26.483h-13.956
				c-12.465,0-22.607-10.143-22.607-22.616V190.34c0-12.473,10.143-22.616,22.607-22.616h16.993l35.407-49.576
				c5.464-7.645,14.336-12.217,23.737-12.217h84.983c9.41,0,18.282,4.573,23.746,12.217l35.407,49.576h16.984
				c12.473,0,22.616,10.143,22.616,22.616v34.216c0,12.473-10.143,22.616-22.616,22.616h-13.948
				c-3.946,15.183-17.646,26.483-34.057,26.483c-16.41,0-30.111-11.299-34.057-26.483H197.374z"/>
			<path d="M491.046,312.974l-25.15-25.159c-9.958-9.949-27.313-9.949-37.27,0l-25.062,25.062l62.42,62.429l25.062-25.062
				C501.321,339.969,501.321,323.249,491.046,312.974z"/>
			<path d="M292.763,423.682l-23.411,85.831l85.839-23.411l98.313-98.313l-62.42-62.429L292.763,423.682z M294.52,484.354
				l10.655-39.089l28.434,28.425L294.52,484.354z"/>
		</g>
	</g>
</g>
<g>
</g>
<g>
</g>
<g>
</g>
<g>
</g>
<g>
</g>
<g>
</g>
<g>
</g>
<g>
</g>
<g>
</g>
<g>
</g>
<g>
</g>
<g>
</g>
<g>
</g>
<g>
</g>
<g>
</g>
</svg>
