<?xml version="1.0" encoding="iso-8859-1"?>
<!-- Generator: Adobe Illustrator 19.0.0, SVG Export Plug-In . SVG Version: 6.00 Build 0)  -->
<svg version="1.1" id="Layer_1" xmlns="http://www.w3.org/2000/svg" xmlns:xlink="http://www.w3.org/1999/xlink" x="0px" y="0px"
	 viewBox="0 0 512 512" style="enable-background:new 0 0 512 512;" xml:space="preserve">
<g>
	<g>
		<g>
			<path d="M495.527,424.889c-32.088-49.011-75.299-76.006-121.671-76.006c-46.38,0-89.591,26.995-121.688,76.014l-0.936,1.439
				c-1.916,2.94-1.916,6.735,0.009,9.666C283.33,485.005,326.532,512,372.912,512s89.582-26.995,121.671-75.997l0.945-1.439
				C497.452,431.634,497.452,427.829,495.527,424.889z M371.297,494.345c-33.633,0-60.99-27.366-60.99-60.99
				c0-33.633,27.357-60.99,60.99-60.99c33.633,0,60.99,27.357,60.99,60.99C432.286,466.979,404.93,494.345,371.297,494.345z"/>
			<path d="M371.297,390.017c-23.896,0-43.335,19.438-43.335,43.335s19.438,43.335,43.335,43.335
				c23.896,0,43.335-19.438,43.335-43.335S395.193,390.017,371.297,390.017z"/>
			<path d="M117.094,229.513h13.815c0.309-1.201,0.786-2.33,1.218-3.478c0.212-0.565,0.353-1.156,0.591-1.704
				c0.847-1.942,1.845-3.796,3.01-5.544c0.265-0.388,0.591-0.724,0.865-1.103c0.962-1.333,1.986-2.604,3.125-3.787
				c0.521-0.539,1.086-1.006,1.633-1.51c1.015-0.927,2.048-1.81,3.169-2.613c0.653-0.477,1.324-0.909,2.013-1.333
				c1.139-0.715,2.313-1.342,3.531-1.924c0.733-0.344,1.448-0.689,2.198-0.98c1.351-0.53,2.745-0.936,4.175-1.307
				c0.689-0.168,1.342-0.397,2.039-0.53c2.154-0.406,4.352-0.671,6.621-0.671c2.269,0,4.467,0.265,6.621,0.671
				c0.697,0.132,1.351,0.362,2.039,0.53c1.43,0.371,2.825,0.777,4.175,1.307c0.75,0.291,1.465,0.636,2.198,0.98
				c1.218,0.583,2.392,1.209,3.531,1.924c0.689,0.424,1.359,0.856,2.013,1.333c1.121,0.803,2.154,1.686,3.169,2.613
				c0.547,0.503,1.112,0.971,1.633,1.51c1.139,1.183,2.163,2.454,3.125,3.787c0.274,0.38,0.6,0.715,0.865,1.103
				c1.165,1.748,2.163,3.602,3.01,5.544c0.238,0.547,0.38,1.139,0.591,1.704c0.433,1.148,0.909,2.278,1.218,3.478h72.863
				c0.309-1.201,0.786-2.33,1.218-3.478c0.212-0.565,0.353-1.156,0.591-1.704c0.847-1.942,1.845-3.796,3.01-5.544
				c0.265-0.388,0.591-0.724,0.865-1.103c0.962-1.333,1.986-2.604,3.125-3.787c0.521-0.539,1.086-1.006,1.633-1.51
				c1.015-0.927,2.048-1.81,3.169-2.613c0.653-0.477,1.324-0.909,2.013-1.333c1.139-0.715,2.313-1.342,3.531-1.924
				c0.733-0.344,1.448-0.689,2.198-0.98c1.351-0.53,2.745-0.936,4.175-1.307c0.689-0.168,1.342-0.397,2.039-0.53
				c2.154-0.406,4.352-0.671,6.621-0.671c2.269,0,4.467,0.265,6.621,0.671c0.697,0.132,1.351,0.362,2.039,0.53
				c1.43,0.371,2.825,0.777,4.175,1.307c0.75,0.291,1.465,0.636,2.198,0.98c1.218,0.583,2.392,1.209,3.531,1.924
				c0.689,0.424,1.359,0.856,2.013,1.333c1.121,0.803,2.154,1.686,3.169,2.613c0.547,0.503,1.112,0.971,1.633,1.51
				c1.139,1.183,2.163,2.454,3.125,3.787c0.274,0.38,0.6,0.715,0.865,1.103c1.165,1.748,2.163,3.602,3.01,5.544
				c0.238,0.547,0.38,1.139,0.591,1.704c0.433,1.148,0.909,2.278,1.218,3.478h13.815c2.737,0,4.961-2.216,4.961-4.952v-34.225
				c0-2.737-2.224-4.961-4.961-4.961h-21.522H138.616h-21.522c-2.737,0-4.961,2.225-4.961,4.961v34.225
				C112.133,227.297,114.357,229.513,117.094,229.513z"/>
			<path d="M287.59,128.405c-2.154-3.019-5.667-4.82-9.375-4.82h-33.668v44.138h71.124L287.59,128.405z"/>
			<path d="M226.891,123.586h-33.66c-3.716,0-7.23,1.801-9.384,4.82l-28.081,39.318h71.124V123.586z"/>
			<path d="M165.098,220.69c-9.737,0-17.655,7.918-17.655,17.655c0,9.737,7.918,17.655,17.655,17.655s17.655-7.918,17.655-17.655
				C182.754,228.608,174.835,220.69,165.098,220.69z"/>
			<path d="M306.34,220.69c-9.737,0-17.655,7.918-17.655,17.655c0,9.737,7.918,17.655,17.655,17.655
				c9.737,0,17.655-7.918,17.655-17.655C323.995,228.608,316.077,220.69,306.34,220.69z"/>
			<polygon points="297.512,0 173.926,0 173.926,44.138 173.926,52.966 297.503,52.966 			"/>
			<path d="M421.098,52.966v286.658c12.244,4.458,24.055,10.664,35.31,18.529V26.483C456.409,11.882,444.527,0,429.926,0H315.167
				v35.31h88.276C413.18,35.31,421.098,43.229,421.098,52.966z"/>
			<path d="M260.701,476.69H67.995c-9.737,0-17.655-7.918-17.655-17.655V52.966c0-9.737,7.918-17.655,17.655-17.655h88.276V0H41.512
				C26.911,0,15.029,11.882,15.029,26.483v459.034c0,14.601,11.882,26.483,26.483,26.483h263.812
				C289.4,503.296,274.419,491.441,260.701,476.69z"/>
			<path d="M67.996,459.033h177.938c-3.231-4.29-6.418-8.704-9.463-13.356c-4.317-6.585-5.402-14.627-3.266-21.954H103.306
				c-4.882,0-8.828-3.946-8.828-8.828s3.946-8.828,8.828-8.828H235.72c2.428,0,4.626,0.989,6.223,2.569
				c35.019-49.955,81.585-77.4,131.911-77.4c10.037,0,19.915,1.103,29.59,3.24V52.964h-88.276c0,9.737-7.927,17.655-17.655,17.655
				H173.927c-9.737,0-17.655-7.918-17.655-17.655H67.996V459.033z M94.479,190.339c0-12.465,10.143-22.616,22.607-22.616h16.993
				l35.407-49.576c5.464-7.645,14.336-12.217,23.737-12.217h84.983c9.41,0,18.282,4.573,23.746,12.217l35.407,49.576h16.984
				c12.473,0,22.616,10.152,22.616,22.616v34.225c0,12.465-10.143,22.607-22.616,22.607h-13.948
				c-3.946,15.192-17.646,26.483-34.057,26.483s-30.111-11.29-34.057-26.483h-73.128c-3.946,15.192-17.646,26.483-34.057,26.483
				c-16.41,0-30.111-11.29-34.057-26.483h-13.956c-12.465,0-22.607-10.143-22.607-22.607V190.339z M103.306,317.791H235.72
				c4.882,0,8.828,3.946,8.828,8.828c0,4.882-3.946,8.828-8.828,8.828H103.306c-4.882,0-8.828-3.946-8.828-8.828
				C94.479,321.737,98.425,317.791,103.306,317.791z M103.306,361.929H235.72c4.882,0,8.828,3.946,8.828,8.828
				c0,4.882-3.946,8.828-8.828,8.828H103.306c-4.882,0-8.828-3.946-8.828-8.828C94.479,365.875,98.425,361.929,103.306,361.929z"/>
		</g>
	</g>
</g>
<g>
</g>
<g>
</g>
<g>
</g>
<g>
</g>
<g>
</g>
<g>
</g>
<g>
</g>
<g>
</g>
<g>
</g>
<g>
</g>
<g>
</g>
<g>
</g>
<g>
</g>
<g>
</g>
<g>
</g>
</svg>
