<?xml version="1.0" encoding="iso-8859-1"?>
<!-- Generator: Adobe Illustrator 19.0.0, SVG Export Plug-In . SVG Version: 6.00 Build 0)  -->
<svg version="1.1" id="Layer_1" xmlns="http://www.w3.org/2000/svg" xmlns:xlink="http://www.w3.org/1999/xlink" x="0px" y="0px"
	 viewBox="0 0 512 512" style="enable-background:new 0 0 512 512;" xml:space="preserve">
<g>
	<g>
		<g>
			<path d="M392.826,300.138c-58.412,0-105.931,47.519-105.931,105.931c0,58.412,47.519,105.931,105.931,105.931
				c58.412,0,105.931-47.519,105.931-105.931C498.757,347.657,451.238,300.138,392.826,300.138z M445.792,414.897h-52.966
				c-4.882,0-8.828-3.946-8.828-8.828v-52.966c0-4.882,3.946-8.828,8.828-8.828s8.828,3.946,8.828,8.828v44.138h44.138
				c4.882,0,8.828,3.946,8.828,8.828S450.673,414.897,445.792,414.897z"/>
			<path d="M110.344,190.336v34.225c0,2.737,2.225,4.952,4.961,4.952h13.815c0.309-1.201,0.786-2.33,1.218-3.478
				c0.212-0.565,0.353-1.156,0.591-1.704c0.847-1.942,1.845-3.796,3.01-5.544c0.265-0.388,0.591-0.724,0.865-1.103
				c0.962-1.333,1.986-2.604,3.125-3.787c0.521-0.539,1.086-1.006,1.633-1.51c1.015-0.927,2.048-1.81,3.169-2.613
				c0.653-0.477,1.324-0.909,2.013-1.333c1.139-0.715,2.313-1.342,3.531-1.924c0.733-0.344,1.448-0.689,2.198-0.98
				c1.351-0.53,2.745-0.936,4.175-1.307c0.689-0.168,1.342-0.397,2.039-0.53c2.154-0.406,4.352-0.671,6.621-0.671
				c2.269,0,4.467,0.265,6.621,0.671c0.697,0.132,1.351,0.362,2.039,0.53c1.43,0.371,2.825,0.777,4.175,1.307
				c0.75,0.291,1.465,0.636,2.198,0.98c1.218,0.583,2.392,1.209,3.531,1.924c0.689,0.424,1.359,0.856,2.013,1.333
				c1.121,0.803,2.154,1.686,3.169,2.613c0.547,0.503,1.112,0.971,1.633,1.51c1.139,1.183,2.163,2.454,3.125,3.787
				c0.274,0.38,0.6,0.715,0.865,1.103c1.165,1.748,2.163,3.602,3.01,5.544c0.238,0.547,0.38,1.139,0.591,1.704
				c0.433,1.148,0.909,2.278,1.218,3.478h72.863c0.309-1.201,0.786-2.33,1.218-3.478c0.212-0.565,0.353-1.156,0.591-1.704
				c0.847-1.942,1.845-3.796,3.01-5.544c0.265-0.388,0.591-0.724,0.865-1.103c0.962-1.333,1.986-2.604,3.125-3.787
				c0.521-0.539,1.086-1.006,1.633-1.51c1.015-0.927,2.048-1.81,3.169-2.613c0.653-0.477,1.324-0.909,2.013-1.333
				c1.139-0.715,2.313-1.342,3.531-1.924c0.733-0.344,1.448-0.689,2.198-0.98c1.351-0.53,2.745-0.936,4.175-1.307
				c0.689-0.168,1.342-0.397,2.039-0.53c2.154-0.406,4.352-0.671,6.621-0.671c2.269,0,4.467,0.265,6.621,0.671
				c0.697,0.132,1.351,0.362,2.039,0.53c1.43,0.371,2.825,0.777,4.175,1.307c0.75,0.291,1.465,0.636,2.198,0.98
				c1.218,0.583,2.392,1.209,3.531,1.924c0.689,0.424,1.359,0.856,2.013,1.333c1.121,0.803,2.154,1.686,3.169,2.613
				c0.547,0.503,1.112,0.971,1.633,1.51c1.139,1.183,2.163,2.454,3.125,3.787c0.274,0.38,0.6,0.715,0.865,1.103
				c1.165,1.748,2.163,3.602,3.01,5.544c0.238,0.547,0.38,1.139,0.591,1.704c0.433,1.148,0.909,2.278,1.218,3.478h13.815
				c2.737,0,4.961-2.216,4.961-4.952v-34.225c0-2.737-2.224-4.961-4.961-4.961h-21.522H136.826h-21.522
				C112.568,185.375,110.344,187.599,110.344,190.336z"/>
			<path d="M285.801,128.405c-2.154-3.019-5.667-4.82-9.375-4.82h-33.668v44.138h71.124L285.801,128.405z"/>
			<path d="M225.102,123.586h-33.66c-3.716,0-7.23,1.801-9.384,4.82l-28.081,39.318h71.124V123.586z"/>
			<path d="M163.309,220.69c-9.737,0-17.655,7.918-17.655,17.655c0,9.737,7.918,17.655,17.655,17.655s17.655-7.918,17.655-17.655
				C180.964,228.608,173.046,220.69,163.309,220.69z"/>
			<path d="M304.55,220.69c-9.737,0-17.655,7.918-17.655,17.655c0,9.737,7.918,17.655,17.655,17.655
				c9.737,0,17.655-7.918,17.655-17.655C322.206,228.608,314.287,220.69,304.55,220.69z"/>
			<polygon points="295.723,0 172.137,0 172.137,44.138 172.137,52.966 295.714,52.966 			"/>
			<path d="M419.309,52.966v232.448c12.606,2.763,24.461,7.495,35.31,13.789V26.483C454.619,11.882,442.737,0,428.137,0H313.378
				v35.31h88.276C411.391,35.31,419.309,43.229,419.309,52.966z"/>
			<path d="M291.55,476.69H66.208c-9.737,0-17.655-7.918-17.655-17.655V52.966c0-9.737,7.918-17.655,17.655-17.655h88.276V0H39.725
				c-14.61,0-26.483,11.882-26.483,26.483v459.034c0,14.601,11.873,26.483,26.483,26.483H329.5
				C314.502,502.996,301.543,490.982,291.55,476.69z"/>
			<path d="M66.206,52.964v406.069h215.128c-7.671-16.075-12.094-33.995-12.094-52.966c0-68.149,55.437-123.586,123.586-123.586
				c2.975,0,5.897,0.238,8.828,0.45V52.964h-88.276c0,9.737-7.927,17.655-17.655,17.655H172.137
				c-9.737,0-17.655-7.918-17.655-17.655H66.206z M233.931,423.722H101.517c-4.882,0-8.828-3.946-8.828-8.828
				s3.946-8.828,8.828-8.828h132.414c4.882,0,8.828,3.946,8.828,8.828S238.812,423.722,233.931,423.722z M233.931,379.584H101.517
				c-4.882,0-8.828-3.946-8.828-8.828c0-4.882,3.946-8.828,8.828-8.828h132.414c4.882,0,8.828,3.946,8.828,8.828
				C242.758,375.638,238.812,379.584,233.931,379.584z M233.931,335.447H101.517c-4.882,0-8.828-3.946-8.828-8.828
				c0-4.882,3.946-8.828,8.828-8.828h132.414c4.882,0,8.828,3.946,8.828,8.828C242.758,331.501,238.812,335.447,233.931,335.447z
				 M167.697,118.147c5.464-7.645,14.336-12.217,23.737-12.217h84.983c9.41,0,18.282,4.573,23.746,12.217l35.407,49.576h16.984
				c12.473,0,22.616,10.152,22.616,22.616v34.225c0,12.465-10.143,22.607-22.616,22.607h-13.948
				c-3.946,15.192-17.646,26.483-34.057,26.483s-30.111-11.29-34.057-26.483h-73.128c-3.946,15.192-17.646,26.483-34.057,26.483
				c-16.41,0-30.111-11.29-34.057-26.483h-13.956c-12.465,0-22.607-10.143-22.607-22.607v-34.225
				c0-12.465,10.143-22.616,22.607-22.616h16.993L167.697,118.147z"/>
		</g>
	</g>
</g>
<g>
</g>
<g>
</g>
<g>
</g>
<g>
</g>
<g>
</g>
<g>
</g>
<g>
</g>
<g>
</g>
<g>
</g>
<g>
</g>
<g>
</g>
<g>
</g>
<g>
</g>
<g>
</g>
<g>
</g>
</svg>
