<?xml version="1.0" encoding="iso-8859-1"?>
<!-- Generator: Adobe Illustrator 18.0.0, SVG Export Plug-In . SVG Version: 6.00 Build 0)  -->
<!DOCTYPE svg PUBLIC "-//W3C//DTD SVG 1.1//EN" "http://www.w3.org/Graphics/SVG/1.1/DTD/svg11.dtd">
<svg version="1.1" id="Capa_1" xmlns="http://www.w3.org/2000/svg" xmlns:xlink="http://www.w3.org/1999/xlink" x="0px" y="0px"
	 viewBox="0 0 444.35 444.35" style="enable-background:new 0 0 444.35 444.35;" xml:space="preserve">
<path style="stroke:#000000;stroke-width:0;stroke-linecap:round;stroke-linejoin:round;" d="M436.29,154.857
	c-13.234-6.929-50.075,5.327-57.731,10.997c-0.422,0.313-0.82,0.624-1.202,0.936c-8.592-20.941-18.878-43.451-28.721-58.554
	c-1.598-2.451-4.004-4.265-6.8-5.125c-1.618-0.498-40.534-12.189-120.704-12.189c-80.168,0-119.084,11.692-120.702,12.189
	c-2.796,0.86-5.202,2.674-6.8,5.125c-9.654,14.816-19.736,36.757-28.227,57.353c-8.394-5.775-44.309-17.556-57.345-10.732
	c-13.235,6.929-7.933,28.738,0,34.653c5.405,4.031,21.104,4.998,36.794,3.549c-10.167,8.567-16.986,20.976-18.207,34.969
	l77.402,6.599c0,0-16.933,24.915-29.652,24.485c-3.438-0.115-28.047-0.404-44.588-0.764l5.101,37.493
	c0.518,3.802,2.462,7.093,5.24,9.384v32.913c0,8.445,6.847,15.291,15.291,15.291h44.972c8.444,0,15.291-6.846,15.291-15.291v-29.531
	h0.018c3.912,4.729,9.821,7.748,16.424,7.748c6.602,0,12.512-3.019,16.424-7.748h147.215c3.912,4.729,9.821,7.748,16.424,7.748
	c6.593,0,12.495-3.011,16.407-7.729v29.512c0,8.445,6.845,15.291,15.291,15.291h42.923c8.445,0,15.291-6.846,15.291-15.291v-31.474
	c3.877-2.211,6.685-6.129,7.322-10.823l5.101-37.493c-16.54,0.36-41.151,0.649-44.587,0.764
	c-12.719,0.43-29.652-24.485-29.652-24.485l77.402-6.599c-1.221-13.993-8.039-26.401-18.207-34.968
	c15.691,1.449,31.388,0.482,36.793-3.549C444.223,183.595,449.527,161.786,436.29,154.857z M132.144,307.354
	c-6.799,0-12.309-5.511-12.309-12.309c0-6.798,5.51-12.309,12.309-12.309c6.799,0,12.308,5.511,12.308,12.309
	C144.452,301.844,138.943,307.354,132.144,307.354z M281.174,282.192c-39.375,1.9-118,0-118,0l-12-64.72c43.381-2.331,142,0,142,0
	S287.145,260.245,281.174,282.192z M312.206,307.354c-6.799,0-12.309-5.511-12.309-12.309c0-6.798,5.51-12.309,12.309-12.309
	c6.799,0,12.309,5.511,12.309,12.309C324.515,301.844,319.005,307.354,312.206,307.354z M86.189,180.91
	c7.746-19.254,17.055-40.322,25.887-55c11.79-2.815,47.804-9.975,109.057-9.975c61.277,0,97.297,7.165,109.057,9.974
	c8.834,14.678,18.143,35.746,25.889,55.001H86.189z"/>
<g>
</g>
<g>
</g>
<g>
</g>
<g>
</g>
<g>
</g>
<g>
</g>
<g>
</g>
<g>
</g>
<g>
</g>
<g>
</g>
<g>
</g>
<g>
</g>
<g>
</g>
<g>
</g>
<g>
</g>
</svg>
