<?xml version="1.0" encoding="iso-8859-1"?>
<!-- Generator: Adobe Illustrator 19.0.0, SVG Export Plug-In . SVG Version: 6.00 Build 0)  -->
<svg version="1.1" id="Layer_1" xmlns="http://www.w3.org/2000/svg" xmlns:xlink="http://www.w3.org/1999/xlink" x="0px" y="0px"
	 viewBox="0 0 512 512" style="enable-background:new 0 0 512 512;" xml:space="preserve">
<g>
	<g>
		<polygon points="360.55,131.774 360.55,239.304 272.696,239.304 272.696,131.774 239.304,131.774 239.304,239.304 151.45,239.304 
			151.45,131.774 118.058,131.774 118.058,380.227 151.45,380.227 151.45,272.696 239.304,272.696 239.304,380.227 272.696,380.227 
			272.696,272.696 393.942,272.696 393.942,131.774 		"/>
	</g>
</g>
<g>
	<g>
		<path d="M437.02,74.98C388.667,26.628,324.38,0,256,0S123.333,26.628,74.98,74.98C26.628,123.333,0,187.619,0,256
			s26.628,132.667,74.98,181.02C123.333,485.372,187.62,512,256,512s132.667-26.628,181.02-74.98
			C485.372,388.667,512,324.381,512,256S485.372,123.333,437.02,74.98z M256,478.609c-122.746,0-222.609-99.862-222.609-222.609
			S133.254,33.391,256,33.391S478.609,133.254,478.609,256S378.746,478.609,256,478.609z"/>
	</g>
</g>
<g>
	<g>
		<path d="M393.775,351.234c5.845-4.11,9.315-11.05,9.315-18.539c0-11.05-9.133-22.466-21.826-22.466h-29.771v64.838h17.808v-19.907
			h6.666l12.329,19.908h20.09L393.775,351.234z M380.534,339.636h-11.233v-13.881h10.776c2.192,0,4.932,2.465,4.932,6.94
			C385.008,337.079,382.726,339.636,380.534,339.636z"/>
	</g>
</g>
<g>
</g>
<g>
</g>
<g>
</g>
<g>
</g>
<g>
</g>
<g>
</g>
<g>
</g>
<g>
</g>
<g>
</g>
<g>
</g>
<g>
</g>
<g>
</g>
<g>
</g>
<g>
</g>
<g>
</g>
</svg>
