<?xml version="1.0" encoding="iso-8859-1"?>
<!-- Generator: Adobe Illustrator 16.0.0, SVG Export Plug-In . SVG Version: 6.00 Build 0)  -->
<!DOCTYPE svg PUBLIC "-//W3C//DTD SVG 1.1//EN" "http://www.w3.org/Graphics/SVG/1.1/DTD/svg11.dtd">
<svg version="1.1" id="Capa_1" xmlns="http://www.w3.org/2000/svg" xmlns:xlink="http://www.w3.org/1999/xlink" x="0px" y="0px"
	 width="106.066px" height="106.067px" viewBox="0 0 106.066 106.067" style="enable-background:new 0 0 106.066 106.067;"
	 xml:space="preserve">
<g>
	<g>
		<polygon points="23.015,26.132 21.774,24.881 17.105,29.51 13.029,25.4 17.252,21.214 16.012,19.96 11.789,24.149 8.225,20.549 
			12.702,16.114 11.458,14.858 5.54,20.732 16.901,32.195 		"/>
		<path d="M16.778,16.997c0.452,0.903,0.956,1.773,1.514,2.613c0.568,0.856,1.174,1.668,1.819,2.433
			c0.645,0.763,1.338,1.385,2.077,1.847c0.746,0.467,1.535,0.715,2.38,0.742c0.84,0.033,1.742-0.269,2.698-0.903
			c0.729-0.484,1.254-1.03,1.583-1.638c0.334-0.609,0.508-1.238,0.521-1.902c0.01-0.662-0.096-1.335-0.327-2.021
			c-0.231-0.688-0.535-1.367-0.929-2.029l-1.692,1.121c0.264,0.425,0.505,0.862,0.719,1.314c0.214,0.452,0.354,0.908,0.407,1.36
			c0.048,0.455-0.009,0.89-0.173,1.304c-0.165,0.416-0.501,0.796-1.013,1.131c-0.585,0.387-1.148,0.551-1.685,0.484
			c-0.539-0.07-1.071-0.294-1.592-0.679c-0.521-0.387-1.04-0.902-1.552-1.547c-0.512-0.647-1.023-1.362-1.538-2.137
			c-0.519-0.782-0.977-1.531-1.377-2.253c-0.399-0.722-0.669-1.398-0.82-2.033c-0.15-0.63-0.154-1.208-0.007-1.73
			c0.151-0.522,0.519-0.979,1.104-1.371c0.435-0.288,0.846-0.452,1.23-0.491c0.389-0.041,0.753,0.014,1.097,0.154
			c0.344,0.144,0.669,0.364,0.97,0.659c0.308,0.297,0.592,0.628,0.855,0.996l1.692-1.121c-0.922-1.307-1.934-2.117-3.034-2.437
			c-1.105-0.315-2.342-0.021-3.711,0.886c-0.933,0.618-1.542,1.319-1.841,2.1c-0.294,0.782-0.375,1.608-0.249,2.484
			C16.032,15.205,16.323,16.091,16.778,16.997z"/>
		<path d="M27.943,13.409c0.368,0.953,0.789,1.877,1.254,2.76c0.471,0.888,1.023,1.638,1.661,2.247
			c0.639,0.613,1.364,1.023,2.17,1.241c0.806,0.214,1.73,0.12,2.775-0.281c1.04-0.395,1.79-0.95,2.248-1.649
			c0.46-0.698,0.719-1.49,0.786-2.373c0.067-0.879-0.024-1.809-0.265-2.779c-0.243-0.97-0.551-1.934-0.919-2.892
			c-0.361-0.941-0.778-1.857-1.248-2.75c-0.47-0.893-1.026-1.647-1.665-2.257c-0.642-0.609-1.364-1.023-2.17-1.241
			c-0.809-0.214-1.733-0.12-2.779,0.281c-1.04,0.396-1.786,0.95-2.245,1.649c-0.46,0.698-0.719,1.49-0.789,2.373
			c-0.063,0.88,0.027,1.812,0.272,2.789C27.277,11.506,27.582,12.466,27.943,13.409z M29,6.333c0.26-0.481,0.715-0.846,1.374-1.097
			c0.659-0.253,1.24-0.288,1.755-0.106c0.512,0.187,0.979,0.519,1.403,1.01c0.426,0.494,0.819,1.107,1.177,1.846
			c0.361,0.744,0.703,1.548,1.04,2.421c0.337,0.873,0.616,1.705,0.849,2.497c0.228,0.796,0.349,1.513,0.365,2.161
			c0.01,0.652-0.113,1.213-0.37,1.689c-0.258,0.48-0.717,0.845-1.376,1.097c-0.659,0.253-1.24,0.288-1.752,0.106
			c-0.512-0.187-0.979-0.519-1.407-1.009c-0.426-0.495-0.816-1.107-1.174-1.85c-0.364-0.741-0.703-1.545-1.04-2.417
			s-0.62-1.704-0.849-2.497c-0.231-0.795-0.353-1.513-0.365-2.161C28.619,7.374,28.742,6.809,29,6.333z"/>
		<path d="M46.916,16.285l-0.478-6.808l2.44-0.173c0.672-0.048,1.285-0.192,1.839-0.435c0.553-0.241,1.02-0.573,1.401-1.001
			c0.382-0.428,0.666-0.939,0.849-1.535c0.185-0.598,0.251-1.267,0.198-2.02c-0.055-0.768-0.188-1.404-0.402-1.919
			c-0.221-0.512-0.487-0.936-0.802-1.258c-0.322-0.327-0.669-0.568-1.051-0.729c-0.38-0.166-0.758-0.273-1.132-0.333
			C49.403,0.018,49.046-0.003,48.708,0c-0.342,0.01-0.623,0.021-0.847,0.038l-4.107,0.288l1.121,16.1L46.916,16.285z M48.135,1.65
			c0.991-0.068,1.723,0.141,2.197,0.631c0.469,0.488,0.739,1.184,0.802,2.086c0.074,1.068-0.137,1.874-0.628,2.421
			c-0.491,0.546-1.097,0.847-1.819,0.896L46.32,7.854l-0.424-6.045L48.135,1.65z"/>
		<path d="M56.058,15.683c0.609,0.579,1.461,0.946,2.566,1.097c1.099,0.154,2.026,0.034,2.766-0.361
			c0.739-0.389,1.348-0.953,1.831-1.696c0.482-0.741,0.849-1.591,1.104-2.56c0.254-0.967,0.455-1.961,0.589-2.978
			c0.144-0.999,0.223-2.005,0.239-3.015c0.014-1.004-0.109-1.933-0.365-2.775c-0.268-0.844-0.698-1.552-1.305-2.13
			c-0.608-0.579-1.461-0.946-2.56-1.097c-1.105-0.151-2.025-0.031-2.765,0.361c-0.741,0.392-1.355,0.957-1.835,1.696
			c-0.483,0.742-0.852,1.598-1.106,2.573c-0.26,0.974-0.453,1.958-0.594,2.96c-0.139,1.013-0.221,2.023-0.234,3.025
			c-0.018,0.998,0.105,1.923,0.367,2.765C55.021,14.389,55.455,15.104,56.058,15.683z M56.64,8.036
			c0.127-0.926,0.28-1.792,0.462-2.594c0.183-0.801,0.421-1.492,0.726-2.067c0.305-0.575,0.685-1.009,1.14-1.304
			c0.458-0.294,1.036-0.392,1.731-0.294c0.698,0.096,1.225,0.347,1.588,0.753c0.359,0.407,0.609,0.932,0.746,1.563
			c0.13,0.639,0.178,1.367,0.137,2.187c-0.048,0.823-0.134,1.696-0.26,2.625c-0.131,0.924-0.284,1.79-0.466,2.593
			c-0.178,0.802-0.421,1.494-0.726,2.068c-0.301,0.575-0.685,1.01-1.14,1.304c-0.458,0.294-1.036,0.389-1.731,0.294
			c-0.694-0.096-1.227-0.347-1.583-0.758c-0.364-0.406-0.61-0.929-0.747-1.559c-0.137-0.638-0.182-1.367-0.137-2.187
			C56.422,9.837,56.51,8.965,56.64,8.036z"/>
		<polygon points="75.522,7.688 75.564,7.708 72.471,20.595 74.694,21.545 84.085,8.005 82.217,7.206 74.812,18.398 74.771,18.381 
			77.85,5.341 75.646,4.401 68.364,15.646 68.323,15.629 71.279,2.538 69.411,1.739 66.03,17.844 68.247,18.79 		"/>
		<path d="M99.293,21.25l-3.477-3.896l-11.861,10.59l0.924-1.23l-5.256-3.956l3.483-4.624l4.746,3.578l1.058-1.408l-4.75-3.574
			l3.046-4.047l5.041,3.795l1.058-1.41l-6.659-5.017l-9.709,12.895l6.848,5.155l-0.011,0.007l1.355,1.518l5.362-4.788l1.793,2.009
			c0.172,0.192,0.329,0.396,0.479,0.62c0.144,0.224,0.232,0.469,0.267,0.743c0.035,0.273-0.014,0.575-0.137,0.898
			c-0.13,0.325-0.383,0.686-0.767,1.097l-1.786,1.772c-0.134,0.141-0.28,0.298-0.441,0.469c-0.161,0.173-0.305,0.348-0.441,0.527
			c-0.13,0.178-0.246,0.349-0.342,0.51c-0.1,0.163-0.151,0.31-0.158,0.435l1.571,1.764c-0.024-0.14-0.027-0.281-0.014-0.424
			s0.064-0.305,0.153-0.488c0.09-0.181,0.227-0.385,0.411-0.609c0.182-0.224,0.441-0.495,0.767-0.806l1.971-1.938
			c0.486-0.495,0.795-1.054,0.925-1.679c0.126-0.626-0.018-1.23-0.428-1.805l0.03-0.027c0.391,0.274,0.794,0.438,1.212,0.488
			c0.417,0.049,0.828,0.024,1.235-0.077c0.403-0.099,0.804-0.263,1.177-0.495c0.38-0.228,0.736-0.491,1.064-0.782
			c0.955-0.855,1.451-1.793,1.492-2.816C100.553,23.196,100.146,22.207,99.293,21.25z M97.555,25.621
			c-0.582,0.519-1.108,0.833-1.581,0.943c-0.472,0.108-0.896,0.094-1.272-0.033c-0.373-0.125-0.702-0.325-0.979-0.592
			c-0.277-0.266-0.513-0.508-0.701-0.722l-1.311-1.465l4.25-3.795l1.578,1.774c0.633,0.707,0.947,1.395,0.94,2.07
			C98.472,24.467,98.164,25.073,97.555,25.621z"/>
		<path d="M75.352,56.778c-0.191-0.109-0.39-0.212-0.589-0.305l-2.221-9.683c-0.811-4.608-4.295-8.001-9.366-7.825H41.963
			c-4.591,0-8.586,1.742-9.363,7.825l-2.219,9.683c-0.206,0.093-0.402,0.195-0.589,0.305l-0.518-4.641c0,0-7.394-3.263-9.149,0
			c-1.759,3.269,0,4.442,0,4.442l9.199,0.492c-1.718,1.146-2.822,2.896-2.822,4.853v8.87c0,2.208,1.392,4.145,3.498,5.26v5.958
			c0,2.02,2.485,3.651,5.564,3.651c3.07,0,5.563-1.632,5.563-3.651v-4.958h21.939v4.958c0,2.02,2.487,3.651,5.561,3.651
			s5.568-1.632,5.568-3.651v-5.533c2.621-0.992,4.448-3.162,4.448-5.688v-8.87c0-1.958-1.098-3.706-2.826-4.853l9.205-0.493
			c0,0,0.37-1.174,0-4.442c-0.365-3.263-9.146,0-9.146,0L75.352,56.778z M42.09,69.07H32.05v-4.771H42.09V69.07z M56.244,63.844
			l-9.312,7.009l4.931-5.305l-3.571,0.127l7.176-5.842l2.127-0.078l-4.948,4.212L56.244,63.844z M32.741,55.131
			c-0.15,0-0.301,0.014-0.453,0.021l2.39-9.562c0.445-2.712,3.453-5.049,6.413-5.049h22.972c2.96,0,5.663,1.903,6.413,5.049
			l2.382,9.562c-0.144-0.007-0.295-0.021-0.448-0.021H32.741z M74.482,69.07h-10.04v-4.771h10.04V69.07z"/>
		<path d="M52.266,18.549c-24.13,0-43.758,19.631-43.758,43.759c0,24.126,19.631,43.759,43.758,43.759s43.759-19.633,43.759-43.759
			C96.025,38.18,76.399,18.549,52.266,18.549z M52.266,102.566c-22.196,0-40.253-18.059-40.253-40.255
			c0-22.198,18.057-40.258,40.253-40.258c22.196,0,40.254,18.057,40.254,40.255C92.521,84.503,74.462,102.566,52.266,102.566z"/>
	</g>
</g>
<g>
</g>
<g>
</g>
<g>
</g>
<g>
</g>
<g>
</g>
<g>
</g>
<g>
</g>
<g>
</g>
<g>
</g>
<g>
</g>
<g>
</g>
<g>
</g>
<g>
</g>
<g>
</g>
<g>
</g>
</svg>
